<svg width="261" height="19" viewBox="0 0 261 19" fill="none" xmlns="http://www.w3.org/2000/svg">
    <path d="M133 17.5V15H145.5V12.5H135.5V10H133V7.5H135.5V5H148V7.5H138V10H148V12.5H150.5V15H148V17.5H133ZM155.5 17.5V15H153V12.5H155.5V10H165.5V7.5H155.5V5H168V7.5H170.5V17.5H155.5ZM158 15H165.5V12.5H158V15ZM180.5 17.5V7.5H175.5V5H180.5V0H185.5V5H190.5V7.5H185.5V17.5H180.5ZM195.5 17.5V15H193V5H198V15H205.5V5H210.5V17.5H195.5ZM220.5 7.5H223V10H220.5V17.5H215.5V5H220.5V7.5ZM230.5 5V7.5H223V5H230.5ZM233 17.5V5H248V7.5H250.5V17.5H245.5V7.5H238V17.5H233Z" fill="white"/>
    <path d="M256 17.5V12.5H261V17.5H256Z" fill="#FF0000"/>
    <path d="M0 18.5V16H12.5V13.5H2.5V11H0V8.5H2.5V6H15V8.5H5V11H15V13.5H17.5V16H15V18.5H0ZM22.5 18.5V16H20V13.5H22.5V11H32.5V8.5H22.5V6H35V8.5H37.5V18.5H22.5ZM25 16H32.5V13.5H25V16ZM40 18.5V6H55V8.5H57.5V18.5H52.5V8.5H50V18.5H45V8.5H42.5V18.5H40ZM62.5 18.5V16H60V6H65V16H72.5V6H77.5V18.5H62.5ZM82.5 18.5V16H80V8.5H82.5V6H95V8.5H97.5V13.5H85V16H95V18.5H82.5ZM85 11H92.5V8.5H85V11ZM102.5 18.5V16H107.5V3.5H105V1H112.5V16H117.5V18.5H102.5Z" fill="white"/>
    </svg>
    